<?xml version="1.0" encoding="UTF-8" standalone="no"?>
<!-- Created with Inkscape (http://www.inkscape.org/) -->

<svg
   xmlns:dc="http://purl.org/dc/elements/1.1/"
   xmlns:cc="http://creativecommons.org/ns#"
   xmlns:rdf="http://www.w3.org/1999/02/22-rdf-syntax-ns#"
   xmlns:svg="http://www.w3.org/2000/svg"
   xmlns="http://www.w3.org/2000/svg"
   xmlns:xlink="http://www.w3.org/1999/xlink"
   xmlns:sodipodi="http://sodipodi.sourceforge.net/DTD/sodipodi-0.dtd"
   xmlns:inkscape="http://www.inkscape.org/namespaces/inkscape"
   width="64px"
   height="64px"
   id="svg2985"
   version="1.1"
   inkscape:version="0.48.0 r9654"
   sodipodi:docname="button-base.svg">
  <defs
     id="defs2987">
    <linearGradient
       inkscape:collect="always"
       id="linearGradient4141">
      <stop
         style="stop-color:#000000;stop-opacity:1;"
         offset="0"
         id="stop4143" />
      <stop
         style="stop-color:#000000;stop-opacity:0;"
         offset="1"
         id="stop4145" />
    </linearGradient>
    <linearGradient
       id="linearGradient3019">
      <stop
         style="stop-color:#000000;stop-opacity:0"
         offset="0"
         id="stop3021" />
      <stop
         style="stop-color:#58fe03;stop-opacity:0;"
         offset="1"
         id="stop3023" />
    </linearGradient>
    <filter
       id="filter3809"
       inkscape:label="Drop shadow"
       width="1.5"
       height="1.5"
       x="-.25"
       y="-.25">
      <feGaussianBlur
         id="feGaussianBlur3811"
         in="SourceAlpha"
         stdDeviation="21.535625000000003"
         result="blur" />
      <feColorMatrix
         id="feColorMatrix3813"
         result="bluralpha"
         type="matrix"
         values="1 0 0 0 0 0 1 0 0 0 0 0 1 0 0 0 0 0 0.5 0 " />
      <feOffset
         id="feOffset3815"
         in="bluralpha"
         dx="4"
         dy="4"
         result="offsetBlur" />
      <feMerge
         id="feMerge3817"
         result="fbSourceGraphic">
        <feMergeNode
           id="feMergeNode3819"
           in="offsetBlur" />
        <feMergeNode
           id="feMergeNode3821"
           in="SourceGraphic" />
      </feMerge>
      <feColorMatrix
         result="fbSourceGraphicAlpha"
         in="fbSourceGraphic"
         values="0 0 0 -1 0 0 0 0 -1 0 0 0 0 -1 0 0 0 0 1 0"
         id="feColorMatrix3823" />
      <feGaussianBlur
         id="feGaussianBlur3825"
         in="fbSourceGraphicAlpha"
         stdDeviation="2"
         result="blur" />
      <feColorMatrix
         id="feColorMatrix3827"
         result="bluralpha"
         type="matrix"
         values="1 0 0 0 0 0 1 0 0 0 0 0 1 0 0 0 0 0 0.5 0 " />
      <feOffset
         id="feOffset3829"
         in="bluralpha"
         dx="2"
         dy="2"
         result="offsetBlur" />
      <feMerge
         id="feMerge3831"
         result="fbSourceGraphic">
        <feMergeNode
           id="feMergeNode3833"
           in="offsetBlur" />
        <feMergeNode
           id="feMergeNode3835"
           in="fbSourceGraphic" />
      </feMerge>
      <feColorMatrix
         result="fbSourceGraphicAlpha"
         in="fbSourceGraphic"
         values="0 0 0 -1 0 0 0 0 -1 0 0 0 0 -1 0 0 0 0 1 0"
         id="feColorMatrix3879" />
      <feGaussianBlur
         id="feGaussianBlur3881"
         in="fbSourceGraphicAlpha"
         stdDeviation="0.5"
         result="blur" />
      <feColorMatrix
         id="feColorMatrix3883"
         result="bluralpha"
         type="matrix"
         values="1 0 0 0 0 0 1 0 0 0 0 0 1 0 0 0 0 0 0.5 0 " />
      <feOffset
         id="feOffset3885"
         in="bluralpha"
         dx="2"
         dy="2"
         result="offsetBlur" />
      <feMerge
         id="feMerge3887"
         result="fbSourceGraphic">
        <feMergeNode
           id="feMergeNode3889"
           in="offsetBlur" />
        <feMergeNode
           id="feMergeNode3891"
           in="fbSourceGraphic" />
      </feMerge>
      <feColorMatrix
         result="fbSourceGraphicAlpha"
         in="fbSourceGraphic"
         values="0 0 0 -1 0 0 0 0 -1 0 0 0 0 -1 0 0 0 0 1 0"
         id="feColorMatrix3893" />
      <feGaussianBlur
         id="feGaussianBlur3895"
         in="fbSourceGraphicAlpha"
         stdDeviation="0.5"
         result="blur" />
      <feColorMatrix
         id="feColorMatrix3897"
         result="bluralpha"
         type="matrix"
         values="1 0 0 0 0 0 1 0 0 0 0 0 1 0 0 0 0 0 0.5 0 " />
      <feOffset
         id="feOffset3899"
         in="bluralpha"
         dx="1.6"
         dy="2"
         result="offsetBlur" />
      <feMerge
         id="feMerge3901">
        <feMergeNode
           id="feMergeNode3903"
           in="offsetBlur" />
        <feMergeNode
           id="feMergeNode3905"
           in="fbSourceGraphic" />
      </feMerge>
      <feGaussianBlur
         stdDeviation="1"
         id="feGaussianBlur3931" />
    </filter>
    <filter
       id="filter3943"
       inkscape:label="Apparition"
       x="0"
       y="0"
       width="1"
       height="1"
       inkscape:menu="Blurs"
       inkscape:menu-tooltip="Edges are partly feathered out"
       color-interpolation-filters="sRGB">
      <feMorphology
         id="feMorphology3945"
         radius="4"
         in="SourceGraphic"
         result="result0" />
      <feGaussianBlur
         id="feGaussianBlur3947"
         in="result0"
         stdDeviation="8"
         result="result91" />
      <feComposite
         id="feComposite3949"
         in2="result91"
         operator="in"
         in="SourceGraphic" />
    </filter>
    <filter
       inkscape:collect="always"
       id="filter4133">
      <feGaussianBlur
         inkscape:collect="always"
         stdDeviation="0.56454546"
         id="feGaussianBlur4135" />
    </filter>
    <linearGradient
       inkscape:collect="always"
       xlink:href="#linearGradient4141"
       id="linearGradient4147"
       x1="110.36364"
       y1="104.72727"
       x2="109.45454"
       y2="53.787891"
       gradientUnits="userSpaceOnUse"
       gradientTransform="translate(-77.545455,-9.818184)" />
  </defs>
  <sodipodi:namedview
     id="base"
     pagecolor="#ffffff"
     bordercolor="#666666"
     borderopacity="1.0"
     inkscape:pageopacity="0.0"
     inkscape:pageshadow="2"
     inkscape:zoom="5.5"
     inkscape:cx="66.792778"
     inkscape:cy="29.272727"
     inkscape:current-layer="layer2"
     showgrid="true"
     inkscape:document-units="px"
     inkscape:grid-bbox="true"
     inkscape:window-width="1620"
     inkscape:window-height="1006"
     inkscape:window-x="60"
     inkscape:window-y="0"
     inkscape:window-maximized="0"
     showguides="true"
     inkscape:guide-bbox="true"
     inkscape:snap-global="false">
    <sodipodi:guide
       orientation="1,0"
       position="32,64"
       id="guide4137" />
    <sodipodi:guide
       orientation="0,1"
       position="32,32"
       id="guide4139" />
  </sodipodi:namedview>
  <metadata
     id="metadata2990">
    <rdf:RDF>
      <cc:Work
         rdf:about="">
        <dc:format>image/svg+xml</dc:format>
        <dc:type
           rdf:resource="http://purl.org/dc/dcmitype/StillImage" />
        <dc:title />
      </cc:Work>
    </rdf:RDF>
  </metadata>
  <g
     id="layer1"
     inkscape:label="Layer 1"
     inkscape:groupmode="layer">
    <path
       inkscape:connector-curvature="0"
       d="m 16.090907,3.4545465 31.818185,0 c 6.648,0 12,5.352 12,11.9999995 l 0,33.090907 c 0,6.648001 -5.352,12.000001 -12,12.000001 l -31.818185,0 c -6.6479997,0 -11.9999987,-5.352 -11.9999987,-12 l 0,-33.090908 c 0,-6.6479995 5.351999,-11.9999995 11.9999987,-11.9999995 z"
       style="fill:#58fe03;fill-opacity:1;stroke:#000000;stroke-opacity:1;filter:url(#filter4133)"
       id="path4125" />
    <path
       style="font-size:medium;font-style:normal;font-variant:normal;font-weight:normal;font-stretch:normal;text-indent:0;text-align:start;text-decoration:none;line-height:normal;letter-spacing:normal;word-spacing:normal;text-transform:none;direction:ltr;block-progression:tb;writing-mode:lr-tb;text-anchor:start;baseline-shift:baseline;color:#000000;fill:#000000;fill-opacity:1;fill-rule:nonzero;stroke:none;stroke-width:1;marker:none;visibility:visible;display:inline;overflow:visible;enable-background:accumulate;font-family:Sans;-inkscape-font-specification:Sans"
       d="m 16.093751,2.9531251 c -6.9163517,0 -12.5000002,5.5836493 -12.5000002,12.4999999 l 0,33.09375 c 0,6.916351 5.5836485,12.5 12.5000002,12.5 l 31.8125,0 c 6.916351,0 12.499998,-5.583649 12.499998,-12.5 l 0,-33.09375 c 0,-6.9163506 -5.583647,-12.4999999 -12.499998,-12.4999999 l -31.8125,0 z m 0,1 31.8125,0 c 6.379649,0 11.499998,5.1203521 11.499998,11.4999999 l 0,33.09375 c 0,6.379649 -5.120349,11.5 -11.499998,11.5 l -31.8125,0 c -6.3796487,0 -11.5000002,-5.120351 -11.5000002,-11.5 l 0,-33.09375 c 0,-6.3796478 5.1203515,-11.4999999 11.5000002,-11.4999999 z"
       inkscape:connector-curvature="0"
       id="path3035" />
    <rect
       ry="12"
       rx="12"
       y="3.454546"
       x="4.0909081"
       height="57.090908"
       width="55.818184"
       id="gradient"
       style="fill:url(#linearGradient4147);fill-opacity:1;stroke:none" />
  </g>
  <g
     inkscape:groupmode="layer"
     id="layer2"
     inkscape:label="Info button">
    <g
       style="font-size:40px;font-style:normal;font-weight:normal;line-height:125%;letter-spacing:0px;word-spacing:0px;fill:#000000;fill-opacity:1;stroke:none;font-family:Bitstream Vera Sans"
       id="text3039"
       transform="translate(0.90909087,-3.4545455)">
      <path
         style="font-size:64px;font-variant:normal;font-stretch:normal;font-family:Monotype Corsiva;-inkscape-font-specification:Monotype Corsiva"
         d="m 36.568183,14.463067 c 0.645814,4e-5 1.177063,0.21879 1.59375,0.65625 0.416646,0.416705 0.624979,0.958371 0.625,1.625 -2.1e-5,0.916703 -0.322937,1.729202 -0.96875,2.4375 -0.625019,0.687534 -1.333352,1.031284 -2.125,1.03125 -0.625017,3.4e-5 -1.14585,-0.218716 -1.5625,-0.65625 -0.416683,-0.437465 -0.625016,-1.010381 -0.625,-1.71875 -1.6e-5,-0.937463 0.302067,-1.729129 0.90625,-2.375 0.604149,-0.666627 1.322899,-0.99996 2.15625,-1"
         id="path3048"
         inkscape:connector-curvature="0" />
      <path
         style="font-size:64px;font-variant:normal;font-stretch:normal;font-family:Monotype Corsiva;-inkscape-font-specification:Monotype Corsiva"
         d="m 24.982956,32.059658 -1.375,-1.0625 c 2.083326,-2.291644 3.979158,-3.916643 5.6875,-4.875 1.729154,-0.979141 3.197903,-1.468724 4.40625,-1.46875 0.666651,2.6e-5 1.177067,0.14586 1.53125,0.4375 0.35415,0.291692 0.531233,0.687525 0.53125,1.1875 -1.7e-5,0.604191 -0.6771,3.166688 -2.03125,7.6875 -2.208346,7.395843 -3.312512,11.854172 -3.3125,13.375 -1.2e-5,0.29167 0.0729,0.54167 0.21875,0.75 0.145821,0.187503 0.302071,0.281253 0.46875,0.28125 0.666653,3e-6 2.374985,-1.291663 5.125,-3.875 l 1.21875,1.1875 c -2.854183,2.687503 -4.937514,4.406251 -6.25,5.15625 -1.312511,0.75 -2.385427,1.124999 -3.21875,1.125 -0.729175,-10e-7 -1.312508,-0.229167 -1.75,-0.6875 -0.416674,-0.458333 -0.625007,-1.093749 -0.625,-1.90625 -7e-6,-2.604162 1.562491,-8.968739 4.6875,-19.09375 0.145821,-0.479145 0.218738,-0.906228 0.21875,-1.28125 -1.2e-5,-0.416644 -0.187512,-0.624977 -0.5625,-0.625 -0.416678,2.3e-5 -0.895844,0.166689 -1.4375,0.5 -0.520843,0.333355 -1.697925,1.395854 -3.53125,3.1875"
         id="path3044"
         inkscape:connector-curvature="0" />
    </g>
  </g>
</svg>
